<svg width="52" height="52" viewBox="0 0 52 52" fill="none" xmlns="http://www.w3.org/2000/svg">
<path d="M26.0303 0L24.9265 0.735837L1.37972 16.495L0.52124 17.0469V34.5844L1.37972 35.1362L24.9265 50.8954L26.0303 51.6313L27.134 50.8954L50.6808 35.1362L51.5393 34.5844V17.0469L50.6808 16.495L27.134 0.735837L26.0303 0ZM24.068 6.00934V16.679L13.9503 23.4855L6.04002 18.1507L24.068 6.00934ZM27.9925 6.00934L46.0205 18.1507L38.1103 23.4855L27.9925 16.679V6.00934ZM26.0303 20.1129L34.5537 25.8156L26.0303 31.5184L17.5068 25.8156L26.0303 20.1129ZM4.44571 21.7685L10.455 25.8156L4.44571 29.8627V21.7685ZM47.6148 21.7685V29.8627L41.6055 25.8156L47.6148 21.7685ZM14.0116 28.1458L24.068 34.9523V45.6219L6.04002 33.4806L14.0116 28.1458ZM38.0489 28.1458L46.0205 33.4806L27.9925 45.6219V34.9523L38.0489 28.1458Z" fill="#404756"/>
</svg>
