<svg width="52" height="50" viewBox="0 0 52 50" fill="none" xmlns="http://www.w3.org/2000/svg">
<path d="M25.509 0.275452C11.4208 0.275452 0 11.6809 0 25.7385C0 36.9907 7.31238 46.5412 17.4455 49.9138C18.7179 50.1438 19.6223 48.8407 19.6223 47.8596C19.6223 47.2617 19.6377 46.5412 19.6223 44.4257C12.5246 45.9587 10.3017 40.9918 10.3017 40.9918C9.13665 38.0484 7.72629 37.2053 7.72629 37.2053C5.41147 35.6263 7.89492 35.6723 7.89492 35.6723C10.455 35.8409 11.7734 38.0484 11.7734 38.0484C13.7356 41.4823 18.166 41.1451 19.6223 40.5012C19.6223 38.9376 19.791 37.8032 20.2202 37.0827C12.2026 35.6723 7.8336 31.0427 7.84893 24.6347C7.86426 20.8482 9.16731 17.9049 11.2828 15.728C10.363 14.563 9.73452 10.5772 11.6201 8.12438C16.3571 8.12438 19.1778 11.543 19.1778 11.543C19.1778 11.543 21.4006 10.5772 25.4937 10.5772C29.6021 10.5772 31.8096 11.497 31.8096 11.497C31.8096 11.497 34.6457 8.12438 39.3826 8.12438C41.2682 10.5772 40.6397 14.563 39.9039 15.6514C41.9274 17.7823 43.1691 20.7256 43.1691 24.6347C43.1691 31.0427 38.8154 35.6723 30.8132 37.0673C31.3191 37.8338 31.3957 38.9069 31.3957 40.5012C31.3957 43.9045 31.3957 47.0165 31.3957 47.8596C31.3957 48.8407 32.2849 50.1591 33.5879 49.9138C43.721 46.5259 51.0181 36.9907 51.0181 25.7385C51.0181 11.6809 39.5973 0.275452 25.509 0.275452Z" fill="#404756"/>
</svg>
