<svg width="52" height="52" viewBox="0 0 52 52" fill="none" xmlns="http://www.w3.org/2000/svg">
<path d="M45.705 0H6.83408C3.48146 0 0.760498 2.72096 0.760498 6.07358V44.9445C0.760498 48.2971 3.48146 51.0181 6.83408 51.0181H45.705C49.0576 51.0181 51.7786 48.2971 51.7786 44.9445V6.07358C51.7786 2.72096 49.0576 0 45.705 0ZM16.5518 19.4355V42.515H9.26351V19.4355H16.5518ZM9.26351 12.7181C9.26351 11.0175 10.7212 9.71773 12.9077 9.71773C15.0941 9.71773 16.4668 11.0175 16.5518 12.7181C16.5518 14.4187 15.1913 15.7913 12.9077 15.7913C10.7212 15.7913 9.26351 14.4187 9.26351 12.7181ZM43.2755 42.515H35.9873C35.9873 42.515 35.9873 31.2668 35.9873 30.3679C35.9873 27.9385 34.7725 25.509 31.7357 25.4604H31.6386C28.699 25.4604 27.4842 27.9628 27.4842 30.3679C27.4842 31.4733 27.4842 42.515 27.4842 42.515H20.1959V19.4355H27.4842V22.5451C27.4842 22.5451 29.8286 19.4355 34.5417 19.4355C39.3642 19.4355 43.2755 22.7516 43.2755 29.469V42.515Z" fill="#404756"/>
</svg>
