<svg width="23" height="19" viewBox="0 0 23 19" fill="none" xmlns="http://www.w3.org/2000/svg">
<path d="M11.5 19L11.9423 18.7488C12.395 18.4975 23 12.4612 23 6.00282C23 2.69323 20.2218 0 16.8077 0C14.5581 0 12.585 1.16908 11.5 2.91432C10.415 1.16908 8.44186 0 6.19231 0C2.77825 0 5.96046e-07 2.69323 5.96046e-07 6.00282C5.96046e-07 12.4612 10.605 18.4975 11.0577 18.7488L11.5 19ZM16.8077 1.71509C19.2473 1.71509 21.2308 3.63787 21.2308 6.00282C21.2308 10.8098 13.4593 15.8177 11.5 17.0035C9.54072 15.8177 1.76923 10.8098 1.76923 6.00282C1.76923 3.63787 3.7527 1.71509 6.19231 1.71509C8.63191 1.71509 10.6154 3.63787 10.6154 6.00282H12.3846C12.3846 3.63787 14.3681 1.71509 16.8077 1.71509Z" fill="#404756"/>
</svg>
