<svg width="52" height="41" viewBox="0 0 52 41" fill="none" xmlns="http://www.w3.org/2000/svg">
<path d="M5.38379 0.101807C2.56504 0.101807 0.281982 2.38486 0.281982 5.20361V9.62285L2.83289 11.2221L5.38379 12.8214L25.791 25.6108L46.1982 12.9061L48.7491 11.3168L51.3 9.73246V5.20361C51.3 2.38486 49.017 0.101807 46.1982 0.101807H5.38379ZM5.38379 5.20361H46.1982V7.16661L25.791 19.8663L5.38379 7.07693V5.20361ZM0.281982 15.6414V35.8144C0.281982 38.6332 2.56504 40.9163 5.38379 40.9163H46.1982C49.017 40.9163 51.3 38.6332 51.3 35.8144V15.741L46.1982 18.9147V35.8144H5.38379V18.84L0.281982 15.6414Z" fill="#404756"/>
</svg>
