<?xml version="1.0" encoding="utf-8"?>
<svg xmlns="http://www.w3.org/2000/svg" width="480" height="480" viewBox="0 0 512 512">
  <path fill="#FEBF10" d="M391.7,419.1c-1-3.4-2.3-7.1-5.4-9.2c-3.6-2.4-9.5-1.5-13.5-0.9c-5.8,0.9-11.5,2.9-17.3,3.4c-7.8,0.6-15.6,1.2-23.4,2c-16.4,1.8-32.6,3.3-49.1,3.6c-32.6,0.8-65.2,0.8-97.8,1.7c-30.8,0.9-61.5,1.8-92.3,2.4c0,0.2,0.1,0.5,0.1,0.7c0.1,0.4,0.1,0.7,0,1.1c2,12.6,1.5,25.6,1.4,38.4c25.3,0.4,50.5-0.9,75.8-2c25.4-1.1,50.8-0.9,76.2-1.3c25.2-0.4,50.4-1.4,75.4-3.9c22.9-2.2,45.5-5.2,68.5-5.8c0.7-1.3,1.8-2.4,3-3C393.7,437.5,394.2,427.8,391.7,419.1z" />
  <path fill="#F6851F" d="M268.6,327.7c-1.2-10-3.8-20.4-9.9-28.5c-6.1-8.3-16.6-15-27.2-11.1c-10.6,3.9-18.9,14.7-21.9,25.5c-3.7,13-2.1,26.6-4.6,39.8c-0.2,0.8-0.4,1.5-0.8,2.1c1.7,18.8,27.8,29.4,44.1,22.3C266.4,369.8,270.6,345.2,268.6,327.7z" />
  <path fill="#FEBF10" d="M245.9 92.9c-1.6-12.9-13-24-26.5-22.9-15.3 1.3-25.3 15.9-23.2 30.9.1.7.1 1.3 0 1.9.7.2 1.5.7 2.2 1.4 7.5 7.8 18.8 13.9 29.9 12.9C240.5 116.1 247.3 104.9 245.9 92.9zM388.6 188.3c-7.2 11.2-14.7 22.1-22.8 32.7-8.7 11.3-16.7 23.1-24.2 35.3-5.6 9.1-13.8 18.7-16.5 29.2-.9 3.7-4.6 4.8-7.4 3.9-2.9 1-6.6-.4-7.5-4.5-6.2-30.9-21.1-59.2-31.1-88.9-5-15-11-30-18.4-44-3.5-6.6-7.4-12.2-11.8-18.1-2.4-3.3-4.4-6.6-5.9-10.2-2.9 1.9-6.2 3.3-10 4-7.3 1.4-14.8.5-21.9-2.1-.2.1-.5.3-.7.4-.3.6-.5 1.2-.7 1.9-.4 1.1-.7 2.3-1.1 3.4-1.1 3.3-2.2 6.7-3.4 10-2.4 7-5 13.9-8.1 20.6-6.3 13.6-12.1 27.5-17.6 41.5-10 25.4-18.5 51.4-28.6 76.7.5 1.6.4 3.4-1 5.1-1.1 1.3-1.9 2.7-3 4-.6.7-1.2 1.1-1.8 1.5-1.3 2.3-3.9 3.6-6.8 1.8-9.8-6.1-17.5-14.8-24.6-23.8-7.3-9.3-14.3-18.6-22.2-27.3C86.8 236 82.3 231 77.6 226c-4.7-5-10-9.5-14.6-14.5-5.6-6.3-10.9-12.9-16.4-19.4.7 5.4 1.8 10.9 2.7 16.2 1.7 9.8 2.7 19.7 4 29.6 2.6 20.9 6.6 41.4 11.1 61.9 4.5 20.7 9.2 41.5 15 61.9 3 10.4 6.5 20.6 8.6 31.2 1.2 6.1 2.1 12.2 3.1 18.3 14.6-.3 29.3-.7 43.9-1.1 32.9-.9 65.8-2 98.7-2.7 16.1-.3 32.3-.1 48.4-.5 16.5-.4 32.7-2 49.1-3.6 8.1-.8 16.5-.8 24.5-2.2 5.4-.9 10.8-2.5 16.3-3.2 2.8-.4 5.8-.6 8.7-.4.6-1.6 1.8-2.9 3.3-3.5 1.1-6.2.7-12.9.5-19-.3-9.4-.2-18.7.3-28.1 1.1-21.7 3.2-43.3 5.5-64.9 2.3-22 4.6-43.8 8.9-65.5 3.2-16.3 6.6-32.8 7.2-49.4C400.1 173.9 393.6 180.6 388.6 188.3zM278.4 351.7c-4.7 20.8-18.5 39.1-41.5 39.1-20.1 0-44.3-14.8-43.8-37.1 0-1.4.5-2.6 1.3-3.5 1.7-10.2 1.1-20.5 2.6-30.7 1.5-9.6 5.2-19 11.2-26.8 6.8-8.9 17.3-16.9 29-16.8 11.6.1 21.9 6 29 15C279 307.2 283 331.9 278.4 351.7z" />
  <path fill="#010101" d="M401,284c2.3-22,4.6-43.8,8.9-65.5c4.2-21.3,8.5-42.8,7.2-64.7c-0.1-1.7-0.8-3-1.9-3.8c-2-2.6-6.7-3.2-8.7-0.4c-8,10.9-18,20.1-26,31c-4.4,5.9-8,12.4-12.2,18.4c-4.2,6.1-8.7,11.8-13.2,17.7c-8.4,11.1-16.1,22.7-23.5,34.5c-4.3,6.9-9.4,13.8-13.2,21.2c-6.9-26.4-18.7-51.2-27.9-76.9c-5.1-14.3-10.4-28.4-16.9-42.1c-3.2-6.7-6.5-14.4-11.2-20.3c-3.8-4.7-9.1-10.2-10.3-16.4c-0.1-0.7-0.4-1.3-0.7-1.9c4.9-7.6,6.7-17.4,4.8-26.7c-3.8-18.2-20.6-30.6-39-29.1c-20.5,1.7-34.8,22.8-32.1,42.6c0.4,2.8,2.4,4.4,4.6,4.8c-0.7,1.9-0.5,4.1,1.2,6c2.8,2.9,6.1,5.6,9.7,7.9c-0.2,0.4-0.4,0.9-0.6,1.3c-2.6,6.4-4.4,13.2-6.7,19.7c-5.7,15.8-13.3,30.8-19.7,46.4c-12.4,30.3-22.3,61.6-34.7,91.9c-7.1-5.5-12.8-12.8-18.2-19.8c-7.2-9.3-14.3-18.3-22.2-27c-9.2-10.2-18.4-20.3-28.4-29.7c-4.9-4.6-8.9-10.6-13.2-15.7c-4.1-4.9-8.3-9.7-12.8-14.3c-2.7-2.8-8.8-1-9,3.1c-0.6,9.3,0.6,18.3,2.2,27.5c1.8,10.4,3.2,20.7,4.5,31.2c2.5,21.2,6.4,41.9,10.9,62.8c4.5,20.8,9.1,41.5,14.7,62c2.9,10.6,6.6,20.9,9.1,31.6c1.9,8.1,2.9,16.3,4.2,24.5c-0.2,0.9-0.1,1.8,0.1,2.7c0,0,0,0,0,0.1c-0.7,1.2-1,2.7-0.5,4.4c0.5,1.5,1.2,2.6,2.1,3.5c2,13,1.1,26.7,1,39.7c0,3.1,2.1,4.7,4.5,4.9c1,1.2,2.4,2.1,4.4,2.2c25.6,0.6,51.2-0.8,76.7-1.9c25.4-1.1,50.8-1,76.2-1.4c25.2-0.4,50.4-1.4,75.5-3.7c24.5-2.2,48.6-5.7,73.3-6c2.3,5.2,10.8,2.9,10.4-2.9c-1-16.7,3.1-36.1-6.5-51.1c-1.3-2.1-2.9-3.7-4.7-4.9c4.6-15,1.5-32,2-47.5C396.3,330.6,398.6,307.3,401,284z M198.3,104.2c-0.7-0.7-1.4-1.2-2.2-1.4c0.1-0.6,0.1-1.2,0-1.9c-2.1-15,7.9-29.6,23.2-30.9c13.5-1.1,24.9,10,26.5,22.9c1.5,12-5.4,23.1-17.7,24.2C217,118.1,205.8,112,198.3,104.2z M393.5,446.5c-1.3,0.5-2.4,1.6-3,3c-23,0.5-45.6,3.5-68.5,5.8c-25.1,2.4-50.3,3.4-75.4,3.9c-25.4,0.5-50.8,0.3-76.2,1.3c-25.2,1.1-50.5,2.4-75.8,2c0.1-12.8,0.6-25.8-1.4-38.4c0-0.4,0-0.7,0-1.1c0-0.2-0.1-0.5-0.1-0.7c30.8-0.6,61.5-1.6,92.3-2.4c32.6-0.9,65.2-1,97.8-1.7c16.5-0.4,32.7-1.9,49.1-3.6c7.8-0.8,15.6-1.4,23.4-2c5.8-0.4,11.6-2.4,17.3-3.4c4-0.6,9.8-1.5,13.5,0.9c3.1,2.1,4.4,5.8,5.4,9.2C394.2,427.8,393.7,437.5,393.5,446.5z M390.3,281.9c-2.3,21.6-4.3,43.2-5.5,64.9c-0.5,9.4-0.6,18.7-0.3,28.1c0.2,6.1,0.7,12.8-0.5,19c-1.5,0.6-2.7,2-3.3,3.5c-2.9-0.1-5.9,0-8.7,0.4c-5.5,0.8-10.8,2.3-16.3,3.2c-8,1.3-16.4,1.3-24.5,2.2c-16.4,1.7-32.6,3.2-49.1,3.6c-16.1,0.4-32.3,0.2-48.4,0.5c-32.9,0.7-65.8,1.7-98.7,2.7c-14.6,0.4-29.3,0.8-43.9,1.1c-1-6.1-1.9-12.3-3.1-18.3c-2.1-10.6-5.6-20.8-8.6-31.2c-5.8-20.4-10.5-41.2-15-61.9c-4.5-20.6-8.6-41-11.1-61.9c-1.2-9.9-2.2-19.8-4-29.6c-0.9-5.3-2-10.7-2.7-16.2c5.5,6.4,10.7,13.1,16.4,19.4c4.5,5.1,9.9,9.6,14.6,14.5c4.7,5,9.2,10,13.8,15.1c7.9,8.8,15,18,22.2,27.3c7.1,9.1,14.7,17.7,24.6,23.8c2.9,1.8,5.5,0.5,6.8-1.8c0.6-0.3,1.2-0.8,1.8-1.5c1.1-1.3,1.9-2.7,3-4c1.4-1.7,1.6-3.5,1-5.1c10.1-25.3,18.6-51.3,28.6-76.7c5.5-14,11.3-27.8,17.6-41.5c3.1-6.7,5.6-13.6,8.1-20.6c1.2-3.3,2.3-6.6,3.4-10c0.4-1.1,0.7-2.3,1.1-3.4c0.2-0.6,0.5-1.3,0.7-1.9c0.3-0.1,0.5-0.2,0.7-0.4c7.1,2.6,14.6,3.5,21.9,2.1c3.7-0.7,7.1-2.1,10-4c1.5,3.6,3.5,6.9,5.9,10.2c4.3,6,8.3,11.6,11.8,18.1c7.4,14,13.4,29,18.4,44c10,29.7,25,58,31.1,88.9c0.8,4.1,4.6,5.6,7.5,4.5c2.8,0.9,6.5-0.2,7.4-3.9c2.7-10.5,10.9-20.1,16.5-29.2c7.5-12.2,15.6-23.9,24.2-35.3c8.1-10.6,15.6-21.5,22.8-32.7c4.9-7.7,11.5-14.3,17.7-21.2c-0.6,16.6-4,33.1-7.2,49.4C394.8,238.2,392.6,260,390.3,281.9z" />
  <path fill="#010101" d="M266.3,291c-7.1-9.1-17.4-14.9-29-15c-11.7-0.1-22.2,7.9-29,16.8c-6,7.8-9.7,17.1-11.2,26.8c-1.6,10.2-0.9,20.5-2.6,30.7c-0.7,0.9-1.2,2.1-1.3,3.5c-0.6,22.3,23.7,37.1,43.8,37.1c23,0,36.8-18.3,41.5-39.1C283,331.9,279,307.2,266.3,291z M248.3,377.7c-16.2,7.1-42.3-3.5-44.1-22.3c0.4-0.6,0.7-1.3,0.8-2.1c2.4-13.2,0.9-26.8,4.6-39.8c3-10.7,11.3-21.5,21.9-25.5c10.6-3.9,21,2.8,27.2,11.1c6.1,8.2,8.7,18.6,9.9,28.5C270.6,345.2,266.4,369.8,248.3,377.7z" />
</svg>